HIERARCHY
ROOT SpineBase
{
  OFFSET 0.000000 0.000000 0.000000
  CHANNELS 6 Xposition Yposition Zposition Zrotation Xrotation Yrotation
  JOINT SpineMid
  {
    OFFSET 0.000000 28.619468 -0.000000
    CHANNELS 3 Zrotation Xrotation Yrotation
    JOINT SpineShoulder
    {
      OFFSET -0.226192 21.273401 -0.689192
      CHANNELS 3 Zrotation Xrotation Yrotation
      JOINT Neck
      {
        OFFSET -0.114616 7.032194 -0.526814
        CHANNELS 3 Zrotation Xrotation Yrotation
        JOINT Head
        {
          OFFSET 3.774033 12.798052 -0.474393
          CHANNELS 3 Zrotation Xrotation Yrotation
          End Site
          {
            OFFSET 0 0 0
          }
        }
      }
      JOINT ShoulderLeft
      {
        OFFSET -13.559496 -3.954508 -7.610702
        CHANNELS 3 Zrotation Xrotation Yrotation
        JOINT ElbowLeft
        {
          OFFSET -5.248854 -23.808330 0.269980
          CHANNELS 3 Zrotation Xrotation Yrotation
          JOINT WristLeft
          {
            OFFSET -0.105934 -17.973580 -4.239510
            CHANNELS 3 Zrotation Xrotation Yrotation
            JOINT HandLeft
            {
              OFFSET 1.238683 -7.455855 -0.401939
              CHANNELS 3 Zrotation Xrotation Yrotation
              JOINT HandTipLeft
              {
                OFFSET -0.257635 -6.181642 -1.453210
                CHANNELS 3 Zrotation Xrotation Yrotation
                End Site
                {
                  OFFSET 0 0 0
                }
              }
              JOINT ThumbLeft
              {
                OFFSET 2.771167 -0.125213 -1.546076
                CHANNELS 3 Zrotation Xrotation Yrotation
                End Site
                {
                  OFFSET 0 0 0
                }
              }
            }
          }
        }
      }
      JOINT ShoulderRight
      {
        OFFSET 15.642889 -5.005395 2.171350
        CHANNELS 3 Zrotation Xrotation Yrotation
        JOINT ElbowRight
        {
          OFFSET 2.302033 -23.783985 3.624287
          CHANNELS 3 Zrotation Xrotation Yrotation
          JOINT WristRight
          {
            OFFSET 1.696059 -23.296390 -4.610449
            CHANNELS 3 Zrotation Xrotation Yrotation
            JOINT HandRight
            {
              OFFSET -0.636635 -4.523710 -0.221791
              CHANNELS 3 Zrotation Xrotation Yrotation
              JOINT HandTipRight
              {
                OFFSET -0.578464 -6.529515 -1.232053
                CHANNELS 3 Zrotation Xrotation Yrotation
                End Site
                {
                  OFFSET 0 0 0
                }
              }
              JOINT ThumbRight
              {
                OFFSET 2.014986 -0.225437 -1.776075
                CHANNELS 3 Zrotation Xrotation Yrotation
                End Site
                {
                  OFFSET 0 0 0
                }
              }
            }
          }
        }
      }
    }
  }
  JOINT HipLeft
  {
    OFFSET -5.505357 0.845615 -4.964328
    CHANNELS 3 Zrotation Xrotation Yrotation
    JOINT KneeLeft
    {
      OFFSET -6.907906 -28.409418 5.535399
      CHANNELS 3 Zrotation Xrotation Yrotation
      JOINT AnkleLeft
      {
        OFFSET -2.048683 -32.270757 8.801301
        CHANNELS 3 Zrotation Xrotation Yrotation
        JOINT FootLeft
        {
          OFFSET 2.257344 -3.237329 -10.713785
          CHANNELS 3 Zrotation Xrotation Yrotation
          End Site
          {
            OFFSET 0 0 0
          }
        }
      }
    }
  }
  JOINT HipRight
  {
    OFFSET 4.965492 0.348693 -1.692530
    CHANNELS 3 Zrotation Xrotation Yrotation
    JOINT KneeRight
    {
      OFFSET -2.237092 -27.738858 7.218017
      CHANNELS 3 Zrotation Xrotation Yrotation
      JOINT AnkleRight
      {
        OFFSET -6.685892 -33.784543 8.586293
        CHANNELS 3 Zrotation Xrotation Yrotation
        JOINT FootRight
        {
          OFFSET 0.336448 -3.274830 -9.678559
          CHANNELS 3 Zrotation Xrotation Yrotation
          End Site
          {
            OFFSET 0 0 0
          }
        }
      }
    }
  }
}
MOTION
Frames: 16
Frame Time: 0.033333
29.883814 66.391336 360.265661 -0.000000 -0.000000 -17.352318 -0.000000 0.000000 17.352318 -0.000000 0.000000 0.000000 -0.000000 0.000000 0.000000 0.000000 0.000000 0.000000 -0.000000 0.000000 0.000000 -0.000000 0.000000 0.000000 -0.000000 0.000000 0.000000 -0.000000 0.000000 0.000000 0.000000 0.000000 0.000000 0.000000 0.000000 0.000000 -0.000000 0.000000 0.000000 -0.000000 0.000000 0.000000 -0.000000 0.000000 0.000000 -0.000000 0.000000 0.000000 0.000000 0.000000 0.000000 0.000000 0.000000 0.000000 -0.000000 0.000000 17.352318 -0.000000 0.000000 0.000000 -0.000000 0.000000 0.000000 0.000000 0.000000 0.000000 -0.000000 0.000000 17.352318 -0.000000 0.000000 0.000000 -0.000000 0.000000 0.000000 0.000000 0.000000 0.000000
29.821896 66.385207 360.246418 -0.041686 0.016968 -17.507005 0.044859 -0.003642 17.507013 -0.000000 0.000000 0.000000 -0.000000 0.000000 0.000000 0.000000 0.000000 0.000000 -0.000000 0.000000 0.000000 -0.000000 0.000000 0.000000 -0.707388 -0.902810 -0.117601 -0.141663 -0.362485 0.363531 0.000000 0.000000 0.000000 0.000000 0.000000 0.000000 -0.321400 0.762410 0.026991 0.007409 -3.554246 -0.176771 0.305384 2.792599 0.134794 -0.538635 -5.309553 0.551977 0.000000 0.000000 0.000000 0.000000 0.000000 0.000000 0.044859 -0.003642 17.507013 -0.804841 0.486495 -0.247154 0.806960 -0.482971 0.253972 0.000000 0.000000 0.000000 0.044859 -0.003642 17.507013 -0.000000 0.000000 0.000000 -0.000000 0.000000 0.000000 0.000000 0.000000 0.000000
29.766020 66.381021 360.227179 -0.075087 0.033673 -17.627176 0.081758 -0.009354 17.627204 -0.000000 0.000000 0.000000 -0.000000 0.000000 0.000000 0.000000 0.000000 0.000000 -0.000000 0.000000 0.000000 -0.000000 0.000000 0.000000 -1.238793 -1.623665 -0.221102 -0.354955 -0.595697 0.669815 0.000000 0.000000 0.000000 0.000000 0.000000 0.000000 -0.511107 1.242742 0.048047 0.055503 -5.741389 -0.305217 0.431963 4.500452 0.223556 -1.100485 -8.747054 0.912287 0.000000 0.000000 0.000000 0.000000 0.000000 0.000000 0.081758 -0.009354 17.627204 -1.434544 0.875233 -0.436435 1.441333 -0.864006 0.458261 0.000000 0.000000 0.000000 -0.668808 -0.367342 17.419748 0.823313 0.116847 0.204150 0.202833 -1.099319 -0.731047 0.000000 0.000000 0.000000
29.716185 66.378780 360.207944 -0.100208 0.050117 -17.712870 0.110705 -0.017253 17.712931 -0.000000 0.000000 0.000000 -0.000000 0.000000 0.000000 0.000000 0.000000 0.000000 -0.000000 0.000000 0.000000 -0.000000 0.000000 0.000000 -1.591732 -2.162437 -0.304541 -0.637925 -0.681015 0.919988 0.000000 0.000000 0.000000 0.000000 0.000000 0.000000 -0.569843 1.443422 0.060202 0.140271 -6.662507 -0.375641 0.315086 6.697586 0.085655 -1.621252 -11.953490 1.279822 0.000000 0.000000 0.000000 0.000000 0.000000 0.000000 0.110705 -0.017253 17.712931 -1.889162 1.163806 -0.570960 1.901044 -1.144289 0.609134 0.000000 0.000000 0.000000 -0.902020 -0.513439 17.431516 1.114855 0.169955 0.275071 0.129498 -2.033492 -0.621906 0.000000 0.000000 0.000000
29.672390 66.378484 360.188713 -0.117052 0.066302 -17.764111 0.131700 -0.027428 17.764211 -0.000000 0.000000 0.000000 0.787102 0.269271 -0.052189 0.000000 0.000000 0.000000 -0.000000 0.000000 0.000000 -0.000000 0.000000 0.000000 -1.762397 -2.517573 -0.363396 -0.990400 -0.604737 1.114257 0.000000 0.000000 0.000000 0.000000 0.000000 0.000000 -0.497880 1.365606 0.062386 0.261780 -6.365543 -0.388039 0.491416 8.525492 -0.231681 -2.666591 -14.113542 1.554196 0.000000 0.000000 0.000000 0.000000 0.000000 0.000000 0.131700 -0.027428 17.764211 -2.169491 1.350959 -0.653258 2.185336 -1.325167 0.704115 0.000000 0.000000 0.000000 -1.075235 -0.636928 17.427321 2.203728 0.561536 0.476632 -0.937901 -3.589175 -0.343271 0.000000 0.000000 0.000000
29.634637 66.380131 360.169486 -0.125619 0.082230 -17.780902 0.144730 -0.039940 17.781043 -0.000000 0.000000 0.000000 0.934674 0.305010 -0.057931 0.000000 0.000000 0.000000 -0.000000 0.000000 0.000000 -0.000000 0.000000 0.000000 -1.745437 -2.685633 -0.394572 -1.413963 -0.358061 1.251518 0.000000 0.000000 0.000000 0.000000 0.000000 0.000000 -0.295031 1.009022 0.055393 0.423917 -4.845137 -0.351237 0.730415 10.190029 -0.732975 -4.038821 -15.427334 1.717572 0.000000 0.000000 0.000000 0.000000 0.000000 0.000000 0.144730 -0.039940 17.781043 -2.276909 1.436447 -0.685189 2.294615 -1.407980 0.741936 0.000000 0.000000 0.000000 -1.192216 -0.739182 17.406485 2.488578 0.602376 0.545366 -1.373393 -5.125969 0.404505 0.000000 0.000000 0.000000
29.607921 66.384779 360.152654 -0.121615 0.099939 -17.810202 0.146354 -0.057951 17.810382 -0.000000 0.000000 0.000000 1.081897 0.321836 -0.058009 0.000000 0.000000 0.000000 -0.000000 0.000000 0.000000 -0.000000 0.000000 0.000000 -1.268612 -2.348858 -0.348926 -1.707945 -0.317876 1.164535 0.000000 0.000000 0.000000 0.000000 0.000000 0.000000 -0.046007 0.863896 0.077045 0.420384 -3.068422 -0.299617 2.630685 8.407616 -1.058469 -7.742214 -10.789581 1.460123 0.000000 0.000000 0.000000 0.000000 0.000000 0.000000 0.146354 -0.057951 17.810382 -2.295557 1.405208 -0.688635 2.312946 -1.376388 0.744576 0.000000 0.000000 0.000000 -1.480878 -1.055210 17.349550 3.192916 0.890714 0.682375 -2.082576 -8.597445 1.205267 0.000000 0.000000 0.000000
29.580827 66.390987 360.139633 -0.117230 0.108471 -17.767242 0.144739 -0.067525 17.767438 -0.000000 0.000000 0.000000 1.195965 0.326608 -0.055567 0.000000 0.000000 0.000000 -0.000000 0.000000 0.000000 -0.000000 0.000000 0.000000 -0.764574 -2.241901 -0.346999 -2.223297 1.378782 1.147716 0.000000 0.000000 0.000000 0.000000 0.000000 0.000000 -0.000000 0.000000 0.000000 0.838749 0.570604 -0.128434 4.879721 10.024607 -2.134588 -10.874582 -11.837725 1.301223 0.000000 0.000000 0.000000 0.000000 0.000000 0.000000 0.144739 -0.067525 17.767438 -2.004570 1.251962 -0.605473 2.018152 -1.229943 0.649042 0.000000 0.000000 0.000000 -1.148450 -0.838322 17.403573 2.551098 0.509643 0.587396 -3.659711 -14.001498 8.616227 0.000000 0.000000 0.000000
29.566270 66.397811 360.116453 -0.086751 0.122908 -17.642687 0.119922 -0.090834 17.642875 -0.000000 0.000000 0.000000 1.256607 0.280534 -0.039353 0.000000 0.000000 0.000000 0.839440 0.072902 -0.007099 -0.839432 -0.072998 0.006030 0.060408 -2.056180 -0.344116 -2.526456 2.351381 1.002966 0.000000 0.000000 0.000000 0.000000 0.000000 0.000000 1.021774 -1.795526 -0.002077 1.756535 6.603989 -0.365041 -0.154601 14.700093 -3.034768 -8.545933 -13.617757 1.281870 0.000000 0.000000 0.000000 0.000000 0.000000 0.000000 0.119922 -0.090834 17.642875 -1.529775 1.069964 -0.471686 1.538793 -1.056952 0.500166 0.000000 0.000000 0.000000 -1.130141 -0.870867 17.290913 2.373984 0.503788 0.546468 -3.686486 -15.489884 9.695900 0.000000 0.000000 0.000000
29.566424 66.407132 360.094353 -0.045243 0.130495 -17.443817 0.082282 -0.110931 17.443948 -0.000000 0.000000 0.000000 1.339004 0.310565 -0.045739 0.000000 0.000000 0.000000 0.812593 0.058109 -0.004015 -0.812589 -0.058160 0.003190 0.929733 -2.449325 -0.437141 -2.684353 3.586632 0.923967 0.000000 0.000000 0.000000 0.000000 0.000000 0.000000 1.784313 -4.085592 -0.059624 3.295161 16.408788 -0.804913 -2.277402 15.726592 -4.665235 -8.919267 -15.311069 1.052010 0.000000 0.000000 0.000000 0.000000 0.000000 0.000000 0.082282 -0.110931 17.443948 -1.006853 0.800197 -0.318807 1.011387 -0.794459 0.332851 0.000000 0.000000 0.000000 -1.130315 -0.900133 17.102699 2.331998 0.399422 0.559368 -3.356632 -14.228039 8.003895 0.000000 0.000000 0.000000
29.527503 66.412341 360.038862 -0.045345 0.176667 -17.262418 0.095728 -0.155253 17.262618 -0.000000 0.000000 0.000000 1.354777 0.372381 -0.064226 0.000000 0.000000 0.000000 -0.000000 0.000000 0.000000 -0.000000 0.000000 0.000000 1.388581 -2.335337 -0.434194 -3.288555 3.861985 0.964518 0.000000 0.000000 0.000000 0.000000 0.000000 0.000000 2.313461 -7.177461 -0.195663 4.916351 29.207874 -1.551240 0.097081 24.389071 -8.984388 -10.858959 -24.660698 0.059016 0.000000 0.000000 0.000000 0.000000 0.000000 0.000000 0.095728 -0.155253 17.262618 -0.000000 0.000000 0.000000 -0.000000 0.000000 0.000000 0.000000 0.000000 0.000000 -1.007202 -0.988558 16.951588 1.297995 0.475349 0.294636 -1.414261 -10.683991 4.077694 0.000000 0.000000 0.000000
29.468892 66.414164 359.959621 -0.063232 0.254924 -17.108611 0.135429 -0.225041 17.109018 -0.000000 0.000000 0.000000 1.238168 0.552449 -0.123401 0.000000 0.000000 0.000000 -0.000000 0.000000 0.000000 -0.844244 -0.041110 0.199087 2.855029 -2.520336 -0.688108 -4.797341 4.195737 1.307654 0.000000 0.000000 0.000000 0.000000 0.000000 0.000000 3.193891 -9.882861 -0.192838 8.561714 43.431450 -4.253585 -3.221885 33.569553 -14.581021 -3.428538 -32.849275 3.398271 0.000000 0.000000 0.000000 0.000000 0.000000 0.000000 0.880071 -0.633431 17.378087 -0.588711 0.612105 -0.260346 -0.000000 0.000000 0.000000 0.000000 0.000000 0.000000 -0.808071 -1.099608 16.842100 1.156457 0.563537 0.250323 0.366572 -5.468756 -1.894841 0.000000 0.000000 0.000000
29.397552 66.410802 359.861337 -0.099486 0.369545 -16.999178 0.203182 -0.324313 17.000074 -0.000000 0.000000 0.000000 1.040402 0.731442 -0.184311 0.000000 0.000000 0.000000 -0.000000 0.000000 0.000000 -0.796017 0.231830 0.187910 2.286036 -3.492367 -0.757334 -4.156331 4.277002 1.401242 0.000000 0.000000 0.000000 0.000000 0.000000 0.000000 5.541203 -10.761950 0.316653 12.633589 57.692822 -9.326737 -4.949956 35.789086 -20.572666 1.478021 -29.513758 6.508373 0.000000 0.000000 0.000000 0.000000 0.000000 0.000000 1.086903 -0.864419 17.331595 0.182266 0.805998 -0.095728 -0.864904 -0.028602 -0.234164 0.000000 0.000000 0.000000 -0.430420 -1.074425 16.820845 0.823577 0.534597 0.167653 2.965081 0.229926 -8.656404 0.000000 0.000000 0.000000
29.317355 66.400785 359.754929 -0.151942 0.495092 -16.928176 0.289523 -0.429395 16.929918 -0.000000 0.000000 0.000000 0.779214 0.988717 -0.270038 0.000000 0.000000 0.000000 -0.000000 0.000000 0.000000 -0.000000 0.000000 0.000000 0.974141 -4.128603 -0.703973 -1.907629 4.658411 1.024445 0.000000 0.000000 0.000000 0.000000 0.000000 0.000000 8.105688 -10.235212 0.951540 28.029794 72.877019 -25.789833 -5.418845 30.830515 -26.873472 0.362315 -18.555217 6.331549 0.000000 0.000000 0.000000 0.000000 0.000000 0.000000 1.275461 -1.047913 17.305038 0.292698 0.814596 -0.081555 -1.050085 0.067696 -0.289956 0.000000 0.000000 0.000000 -0.418638 -1.570590 16.726784 1.006723 0.888954 0.182964 4.914669 4.133169 -12.804991 0.000000 0.000000 0.000000
29.240851 66.389019 359.639843 -0.204328 0.653210 -17.025777 0.386650 -0.564746 17.028847 -0.000000 0.000000 0.000000 0.348433 1.327139 -0.383005 0.000000 0.000000 0.000000 -0.000000 0.000000 0.000000 -0.000000 0.000000 0.000000 0.010313 -5.172524 -0.862085 -0.926862 3.810993 1.190526 0.000000 0.000000 0.000000 0.000000 0.000000 0.000000 11.996077 -7.530888 1.859436 77.877740 80.985318 -78.600416 -5.149008 26.357487 -33.593343 -1.466206 -2.965687 7.817458 0.000000 0.000000 0.000000 0.000000 0.000000 0.000000 1.435723 -1.215479 17.429490 -0.806086 0.934887 -0.377768 -0.000000 0.000000 0.000000 0.000000 0.000000 0.000000 -0.327721 -1.918514 16.820686 1.806899 1.490973 0.273209 2.934981 2.736291 -9.843687 0.000000 0.000000 0.000000
29.172566 66.379081 359.536230 -0.262598 0.820577 -17.260732 0.494285 -0.705686 17.265657 -0.000000 0.000000 0.000000 0.000323 1.656620 -0.488809 0.000000 0.000000 0.000000 -0.000000 0.000000 0.000000 -0.000000 0.000000 0.000000 -1.260146 -5.648435 -0.937584 0.462865 3.859428 1.124849 0.000000 0.000000 0.000000 0.000000 0.000000 0.000000 18.165202 -1.073248 2.811113 134.395553 77.077758 -141.866714 -4.199232 20.387324 -40.683819 -4.657689 1.026019 8.489245 0.000000 0.000000 0.000000 0.000000 0.000000 0.000000 1.576412 -1.368507 17.680290 -0.829796 0.959914 -0.388095 -0.000000 0.000000 0.000000 0.000000 0.000000 0.000000 -0.179486 -2.107688 17.065963 1.787240 1.626566 0.245981 1.025884 -0.546265 -5.281692 0.000000 0.000000 0.000000
